<?xml version="1.0" encoding="UTF-8" standalone="no"?>
<!-- Created with Inkscape (http://www.inkscape.org/) -->

<svg
   xmlns:dc="http://purl.org/dc/elements/1.1/"
   xmlns:cc="http://creativecommons.org/ns#"
   xmlns:rdf="http://www.w3.org/1999/02/22-rdf-syntax-ns#"
   xmlns:svg="http://www.w3.org/2000/svg"
   xmlns="http://www.w3.org/2000/svg"
   xmlns:xlink="http://www.w3.org/1999/xlink"
   xmlns:sodipodi="http://sodipodi.sourceforge.net/DTD/sodipodi-0.dtd"
   xmlns:inkscape="http://www.inkscape.org/namespaces/inkscape"
   width="139.62688mm"
   height="108.19258mm"
   viewBox="0 0 139.62688 108.19259"
   version="1.1"
   id="svg8"
   inkscape:version="0.92.5 (2060ec1f9f, 2020-04-08)"
   sodipodi:docname="fondo.svg">
  <defs
     id="defs2">
    <linearGradient
       inkscape:collect="always"
       id="linearGradient2061">
      <stop
         style="stop-color:#c1e4f1;stop-opacity:1;"
         offset="0"
         id="stop2057" />
      <stop
         style="stop-color:#c1e4f1;stop-opacity:0;"
         offset="1"
         id="stop2059" />
    </linearGradient>
    <linearGradient
       inkscape:collect="always"
       id="linearGradient907">
      <stop
         style="stop-color:#be0086;stop-opacity:1;"
         offset="0"
         id="stop903" />
      <stop
         style="stop-color:#be0086;stop-opacity:0;"
         offset="1"
         id="stop905" />
    </linearGradient>
    <linearGradient
       inkscape:collect="always"
       id="linearGradient831">
      <stop
         style="stop-color:#be0086;stop-opacity:1;"
         offset="0"
         id="stop827" />
      <stop
         style="stop-color:#be0086;stop-opacity:0;"
         offset="1"
         id="stop829" />
    </linearGradient>
    <linearGradient
       inkscape:collect="always"
       xlink:href="#linearGradient831"
       id="linearGradient837"
       x1="245.99188"
       y1="-19.170856"
       x2="-19.372318"
       y2="204.5246"
       gradientUnits="userSpaceOnUse" />
    <radialGradient
       inkscape:collect="always"
       xlink:href="#linearGradient907"
       id="radialGradient909"
       cx="123.21172"
       cy="138.51605"
       fx="123.21172"
       fy="138.51605"
       r="32.165359"
       gradientTransform="matrix(-1.4724311,-0.55784655,12.144575,-17.238735,-1379.4137,2601.3047)"
       gradientUnits="userSpaceOnUse" />
    <radialGradient
       inkscape:collect="always"
       xlink:href="#linearGradient907-881-633"
       id="radialGradient909-593-712"
       cx="123.21172"
       cy="138.51605"
       fx="123.21172"
       fy="138.51605"
       r="32.165359"
       gradientTransform="matrix(-2.0245928,-0.55784655,16.698791,-17.238735,-1950.2542,2607.884)"
       gradientUnits="userSpaceOnUse" />
    <linearGradient
       inkscape:collect="always"
       id="linearGradient907-881-633">
      <stop
         style="stop-color:#c1e4f1;stop-opacity:1;;opacity:1"
         offset="0"
         id="stop1946" />
      <stop
         style="stop-color:#c1e4f1;stop-opacity:0;;opacity:1"
         offset="1"
         id="stop1948" />
    </linearGradient>
    <linearGradient
       inkscape:collect="always"
       xlink:href="#linearGradient895-880-363"
       id="linearGradient897-564-930"
       x1="44.6259"
       y1="140.34363"
       x2="78.253326"
       y2="99.771416"
       gradientUnits="userSpaceOnUse" />
    <linearGradient
       inkscape:collect="always"
       id="linearGradient895-880-363">
      <stop
         style="stop-color:#c1e4f1;stop-opacity:1;;opacity:1"
         offset="0"
         id="stop1952" />
      <stop
         style="stop-color:#c1e4f1;stop-opacity:0;;opacity:1"
         offset="1"
         id="stop1954" />
    </linearGradient>
    <linearGradient
       inkscape:collect="always"
       xlink:href="#linearGradient831-863-603"
       id="linearGradient837-163-910"
       x1="245.99188"
       y1="-19.170856"
       x2="-19.372318"
       y2="204.5246"
       gradientUnits="userSpaceOnUse" />
    <linearGradient
       inkscape:collect="always"
       id="linearGradient831-863-603">
      <stop
         style="stop-color:#c1e4f1;stop-opacity:1;;opacity:1"
         offset="0"
         id="stop1958" />
      <stop
         style="stop-color:#c1e4f1;stop-opacity:0;;opacity:1"
         offset="1"
         id="stop1960" />
    </linearGradient>
    <radialGradient
       inkscape:collect="always"
       xlink:href="#linearGradient2061"
       id="radialGradient2065"
       cx="66.556824"
       cy="122.25062"
       fx="66.556824"
       fy="122.25062"
       r="13.158556"
       gradientTransform="matrix(1.5416667,0,0,0.87499999,-30.462547,28.448188)"
       gradientUnits="userSpaceOnUse" />
    <clipPath
       clipPathUnits="userSpaceOnUse"
       id="clipPath4554">
      <rect
         style="opacity:1;fill:none;fill-opacity:1;stroke:none;stroke-width:0.66499996;stroke-miterlimit:4;stroke-dasharray:none;stroke-opacity:0.90588235"
         id="rect4556"
         width="139.62688"
         height="108.19258"
         x="9.137886"
         y="60.877029" />
    </clipPath>
  </defs>
  <sodipodi:namedview
     id="base"
     pagecolor="#ffffff"
     bordercolor="#666666"
     borderopacity="1.0"
     inkscape:pageopacity="0.0"
     inkscape:pageshadow="2"
     inkscape:zoom="2.6579633"
     inkscape:cx="120.88701"
     inkscape:cy="284.53149"
     inkscape:document-units="mm"
     inkscape:current-layer="layer1"
     showgrid="false"
     fit-margin-top="0"
     fit-margin-left="0"
     fit-margin-right="0"
     fit-margin-bottom="0"
     inkscape:window-width="1310"
     inkscape:window-height="704"
     inkscape:window-x="56"
     inkscape:window-y="27"
     inkscape:window-maximized="1" />
  <metadata
     id="metadata5">
    <rdf:RDF>
      <cc:Work
         rdf:about="">
        <dc:format>image/svg+xml</dc:format>
        <dc:type
           rdf:resource="http://purl.org/dc/dcmitype/StillImage" />
        <dc:title />
      </cc:Work>
    </rdf:RDF>
  </metadata>
  <g
     inkscape:label="Capa 1"
     inkscape:groupmode="layer"
     id="layer1"
     transform="translate(-9.137886,-60.877029)">
    <g
       id="g4550"
       clip-path="url(#clipPath4554)">
      <rect
         y="60.877029"
         x="9.137886"
         height="108.19257"
         width="139.62689"
         id="rect815"
         style="opacity:1;fill:url(#linearGradient837-163-910);fill-opacity:1;stroke:none;stroke-width:0.66499996;stroke-miterlimit:4;stroke-dasharray:none;stroke-opacity:0.90588235" />
      <ellipse
         ry="30.155024"
         rx="32.165359"
         cy="82.226677"
         cx="31.832861"
         id="path881"
         style="opacity:1;fill:url(#linearGradient897-564-930);fill-opacity:1;stroke:none;stroke-width:0.66499996;stroke-miterlimit:4;stroke-dasharray:none;stroke-opacity:0.90588235" />
      <ellipse
         ry="10.41719"
         rx="4.2034278"
         cy="92.461105"
         cx="8.9881439"
         id="path899"
         style="opacity:1;fill:#c1e4f1;fill-opacity:1;stroke:none;stroke-width:0.66499996;stroke-miterlimit:4;stroke-dasharray:none;stroke-opacity:0.90588235" />
      <ellipse
         ry="51.720432"
         rx="60.310051"
         cy="151.3091"
         cx="113.3428"
         id="path901"
         style="opacity:1;fill:url(#radialGradient909-593-712);fill-opacity:1;stroke:none;stroke-width:0.91058874;stroke-miterlimit:4;stroke-dasharray:none;stroke-opacity:0.90588235" />
      <ellipse
         ry="11.513737"
         rx="20.286106"
         cy="135.41756"
         cx="72.145889"
         id="path911"
         style="opacity:1;fill:url(#radialGradient2065);fill-opacity:1;stroke:none;stroke-width:1.63985133;stroke-miterlimit:4;stroke-dasharray:none;stroke-opacity:0.90588235" />
    </g>
    <rect
       style="opacity:1;fill:none;fill-opacity:1;stroke:none;stroke-width:0.66499996;stroke-miterlimit:4;stroke-dasharray:none;stroke-opacity:0.90588235"
       id="rect815-5"
       width="139.62689"
       height="108.19257"
       x="13.922605"
       y="18.444227" />
    <g
       id="g1513"
       transform="translate(0,3.7041668)">
      <g
         transform="matrix(0.05613876,0,0,0.05613876,26.837657,79.290251)"
         style="fill:#ebffff;fill-opacity:1"
         id="XMLID_107_">
        <g
           style="fill:#ebffff;fill-opacity:1"
           id="g4">
          <path
             d="m 484.426,222.033 c 1.77,22.9 -14.34,43.23 -35.97,45.4 -16.56,1.66 -31.54,-7.81 -38.46,-22.6 l -19.63,1.73 -14.82,7.15 c -3.39,1.63 -5.67,4.87 -6.19,8.59 -1.4,10.03 -3.94,19.69 -7.47,28.87 -1.2,3.11 -0.99,6.58 0.64,9.48 l 5.28,9.44 14.68,9.85 c 7.74,-2.96 16.75,-2.25 24.16,2.72 12.56,8.43 15.57,25.78 6.23,37.99 -8.04,10.52 -22.99,13.41 -34.37,6.65 -7.25,-4.3 -11.63,-11.44 -12.7,-19.07 l -16.27,-10.91 -10.24,-1.25 c -3.52,-0.43 -7.02,0.78 -9.58,3.23 -8.64,8.23 -18.4,15.3 -29.01,20.96 -3.57,1.9 -5.86,5.55 -6.11,9.58 l -1.3,20.74 6.44,25.55 c 10.96,3.06 20.02,11.75 23,23.57 4.5,17.87 -6.6,36 -24.7,40.03 -16.33,3.64 -33.08,-5.88 -38.27,-21.79 -4.04,-12.42 -0.33,-25.26 8.21,-33.65 l -6.47,-25.7 -9.99,-16.06 c -2.68,-4.31 -7.42,-6.86 -12.5,-6.85 -0.03,0 -0.05,0 -0.08,0 -8.75,0 -17.31,-0.87 -25.59,-2.5 -4.93,-0.98 -10.02,0.58 -13.48,4.23 l -13.2,13.93 -14.78,30.66 c 3.46,7.03 3.77,15.52 0.11,23.13 -6.58,13.64 -23.36,19.06 -36.77,11.52 -11.48,-6.47 -16.45,-20.75 -11.45,-32.95 3.41,-8.32 10.48,-13.88 18.48,-15.74 l 14.87,-30.86 2.92,-20.71 c 0.53,-3.82 -0.93,-7.67 -3.93,-10.09 -11.83,-9.6 -21.97,-21.19 -29.9,-34.27 -1.97,-3.25 -5.51,-5.22 -9.31,-5.25 l -20.68,-0.2 -22.64,7.12 c -1.59,14.08 -11.23,26.59 -25.61,31.11 -19.32,6.08 -39.9,-4.54 -46.17,-23.74 -6.27,-19.19 4.32,-40.18 23.49,-46.52 13.42,-4.44 27.52,-0.75 37.06,8.32 l 24.03,-7.56 17.55,-12.51 c 2.61,-1.85 4,-4.95 3.74,-8.13 -0.29,-3.53 -0.44,-7.09 -0.44,-10.69 0,-19.56 4.3,-38.13 11.98,-54.83 1.12,-2.45 1.09,-5.27 -0.09,-7.69 l -5.2,-10.63 -14.11,-10.65 c -7.9,2.53 -16.85,1.32 -23.97,-4.05 -12.08,-9.12 -14.12,-26.61 -4.12,-38.28 8.61,-10.05 23.7,-12.11 34.69,-4.73 7,4.7 10.98,12.06 11.62,19.74 l 15.64,11.8 15.76,2.81 c 11.47,-10.65 24.84,-19.28 39.53,-25.33 l 3.7,-22.48 -4.67,-23.22 c -13.82,-3.56 -25.04,-14.15 -28.06,-28.27 -4.26,-19.95 9.45,-39.38 30.63,-43.39 21.17,-4.01 41.79,8.9 46.05,28.85 3.19,14.93 -3.68,29.56 -16.22,37.66 l 4.41,21.9 10.83,17.28 c 0.71,1.13 1.95,1.81 3.28,1.81 h 0.02 c 24.8,0 48.02,6.9 67.85,18.88 1.09,0.65 2.43,0.74 3.58,0.2 l 16.96,-7.86 19.8,-21.42 c -1.19,-7.68 1,-15.82 6.69,-21.97 10.28,-11.11 27.88,-11.39 38.5,-0.28 9.31,9.75 9.67,25.3 0.83,35.48 -5.72,6.59 -13.93,9.63 -21.95,9.03 l -19.8,21.42 -6.43,17.3 c -0.45,1.2 -0.25,2.54 0.5,3.58 7.81,10.72 14.04,22.66 18.34,35.48 1.19,3.52 3.99,6.26 7.57,7.27 l 16.1,4.51 20.92,-1.85 c 5.13,-14.79 17.94,-25.98 33.67,-27.56 21.63,-2.17 40.6,14.64 42.36,37.54 z"
             id="path2"
             inkscape:connector-curvature="0"
             style="fill:#ebffff;fill-opacity:1" />
        </g>
      </g>
      <g
         transform="matrix(0.05613876,0,0,0.05613876,26.837657,79.290251)"
         style="fill:#e1ffff;fill-opacity:1"
         id="XMLID_8_">
        <g
           style="fill:#e1ffff;fill-opacity:1"
           id="g9">
          <circle
             cx="238.936"
             cy="243.983"
             r="97.519997"
             id="circle7"
             style="fill:#e1ffff;fill-opacity:1" />
        </g>
      </g>
      <path
         d="m 36.445244,92.987154 c 0,-2.739964 2.012687,-5.009711 4.640318,-5.411496 -0.272048,-0.0416 -0.550665,-0.06316 -0.834334,-0.06316 -3.023634,0 -5.474652,2.451018 -5.474652,5.474652 0,3.023634 2.451018,5.474652 5.474652,5.474652 0.283669,0 0.562286,-0.02156 0.834334,-0.06316 -2.627575,-0.401841 -4.640318,-2.671588 -4.640318,-5.411496 z"
         id="path12"
         inkscape:connector-curvature="0"
         style="fill:#ffffff;fill-opacity:1;stroke-width:0.05613876" />
      <g
         transform="matrix(0.05613876,0,0,0.05613876,27.895991,79.290251)"
         id="g26"
         style="fill:#aadfff;fill-opacity:0.65700486">
        <circle
           style="fill:#aadfff;fill-opacity:0.65700486"
           cx="74.852997"
           cy="38.921001"
           r="27.771"
           id="circle14" />
        <circle
           style="fill:#aadfff;fill-opacity:0.65700486"
           cx="67.262001"
           cy="404.98599"
           r="18.343"
           id="circle16" />
        <circle
           style="fill:#aadfff;fill-opacity:0.65700486"
           cx="404.05099"
           cy="435.11801"
           r="27.018"
           id="circle18" />
        <circle
           style="fill:#aadfff;fill-opacity:0.65700486"
           cx="209.002"
           cy="217.089"
           r="25.188999"
           id="circle20" />
        <circle
           style="fill:#aadfff;fill-opacity:0.65700486"
           cx="229.222"
           cy="295.328"
           r="17.145"
           id="circle22" />
        <circle
           style="fill:#aadfff;fill-opacity:0.65700486"
           cx="283.05801"
           cy="243.983"
           r="14.397"
           id="circle24" />
      </g>
    </g>
  </g>
</svg>
